<svg width="368" height="298" viewBox="0 0 368 298" fill="none" xmlns="http://www.w3.org/2000/svg">
<path d="M53.0769 103.857L44.7468 100.634C44.3101 100.463 43.8423 100.385 43.3739 100.407C42.9055 100.429 42.447 100.55 42.0282 100.761C41.6094 100.972 41.2397 101.268 40.9434 101.632C40.647 101.995 40.4305 102.417 40.3081 102.87C21.4318 174.77 59.1843 250.916 130.157 278.403L126.927 286.733C126.756 287.17 126.678 287.637 126.7 288.106C126.722 288.574 126.843 289.033 127.054 289.452C127.265 289.87 127.561 290.24 127.925 290.536C128.288 290.833 128.71 291.049 129.163 291.172C201.063 310.035 277.209 272.295 304.709 201.329L313.039 204.553C313.476 204.724 313.944 204.801 314.412 204.779C314.881 204.757 315.339 204.637 315.758 204.426C316.177 204.215 316.546 203.918 316.843 203.555C317.139 203.191 317.356 202.77 317.478 202.317C336.341 130.416 298.602 54.2706 227.629 26.7705L230.859 18.4404C231.031 18.0038 231.108 17.536 231.086 17.0676C231.064 16.5991 230.943 16.1406 230.732 15.7218C230.522 15.303 230.225 14.9334 229.861 14.637C229.498 14.3406 229.076 14.1241 228.623 14.0017C156.709 -4.84789 80.5636 32.8913 53.0769 103.857Z" fill="#6EDBFF" stroke="white" stroke-width="2" stroke-linejoin="round"/>
<path d="M157.944 125.924L192.319 125.316L210.809 153.063C210.809 153.063 194.629 159.738 160.988 153.33L161.529 150.694C162.206 144.006 161.472 137.25 159.373 130.863L157.944 125.924Z" fill="black" stroke="black" stroke-width="1.2" stroke-linecap="round" stroke-linejoin="round"/>
<path d="M142.205 88.8919C142.205 88.8919 157.764 93.5643 170.606 82.7178C183.449 71.8712 189.629 68.881 194.569 68.1401C199.508 67.3992 191.305 92.5897 191.305 92.5897C191.305 92.5897 171.28 113.882 142.125 104.004" fill="#6EDBFF"/>
<path d="M142.205 88.8919C142.205 88.8919 157.764 93.5643 170.606 82.7178C183.449 71.8712 189.629 68.881 194.569 68.1401C199.508 67.3992 191.305 92.5897 191.305 92.5897C191.305 92.5897 171.28 113.882 142.125 104.004" stroke="black" stroke-width="1.2" stroke-linecap="round" stroke-linejoin="round"/>
<path d="M230.499 71.0773C230.499 71.0773 259.961 138.152 241.032 154.726C223.824 169.797 205.302 147.717 205.302 147.717C205.302 147.717 221.368 130.703 209.507 111.927L186.145 98.7176C186.145 98.7176 177.241 105.826 175.599 99.8055C175.472 99.3583 172.141 91.2418 172.328 86.3492C171.988 80.9293 177.995 76.4839 180.665 74.5882C186.592 70.3898 202.578 63.6016 211.963 63.6016C221.348 63.6016 230.499 71.0773 230.499 71.0773Z" fill="black" stroke="black" stroke-width="1.2" stroke-linecap="round" stroke-linejoin="round"/>
<path d="M186.54 51.9473C186.54 51.9473 186.052 64.349 187.341 70.3897C188.562 76.1033 199.248 75.3624 202.759 73.4734C206.991 71.1973 207.959 69.2416 207.725 66.6051C207.725 66.6051 204.388 60.4843 203.774 59.1961" fill="#6EDBFF"/>
<path d="M186.54 51.9473C186.54 51.9473 186.052 64.349 187.341 70.3897C188.562 76.1033 199.248 75.3624 202.759 73.4734C206.991 71.1973 207.959 69.2416 207.725 66.6051C207.725 66.6051 204.388 60.4843 203.774 59.1961" stroke="black" stroke-width="1.2" stroke-linecap="round" stroke-linejoin="round"/>
<path d="M191.111 113.836C191.111 113.836 213.285 160.606 216.002 194.687L191.111 113.836Z" fill="white"/>
<path d="M191.111 113.836C191.111 113.836 213.285 160.606 216.002 194.687" stroke="black" stroke-width="1.2" stroke-linecap="round" stroke-linejoin="round"/>
<path d="M179.097 172.82C179.051 173.061 177.642 168.455 177.642 168.455C171.475 151.374 166.235 135.014 164.526 116.933C164.199 113.455 164.012 109.911 164.833 106.52C165.654 103.129 167.623 99.8451 170.694 98.2165C175.533 95.62 181.48 97.549 186.506 99.785C202.105 106.673 197.186 106.313 210.008 117.54C210.008 117.54 198.661 115.197 190.037 111.853C190.037 111.853 212.731 163.769 214.774 190.509" fill="#6EDBFF"/>
<path d="M191.111 113.856C191.472 115.191 207.625 176.432 206.777 190.543C206.85 190.596 213.452 195.015 216.002 194.681C218.551 194.347 203.019 123.728 191.125 113.843C191.118 113.849 191.111 113.849 191.111 113.856Z" fill="white" stroke="white" stroke-width="1.2" stroke-linecap="round" stroke-linejoin="round"/>
<path d="M166.415 174.823C168.604 171.125 173.897 171.065 178.109 171.906C194.023 175.176 208.029 184.537 217.137 197.991" stroke="black" stroke-width="1.2" stroke-linecap="round" stroke-linejoin="round"/>
<path d="M177.154 166.186C190.43 162.849 203.466 166.313 213.025 176.112" stroke="black" stroke-width="1.2" stroke-linecap="round" stroke-linejoin="round"/>
<path d="M173.09 37.4834C174.574 40.0244 176.394 42.3528 178.503 44.4051C180.292 46.0004 183.416 48.0028 185.712 47.3354C187.894 46.7346 188.161 43.8712 189.47 41.9956C185.064 39.1254 179.131 37.9907 173.09 37.4834Z" fill="black" stroke="black" stroke-width="1.2" stroke-linecap="round" stroke-linejoin="round"/>
<path d="M238.436 92.9971C243.402 107.005 246.252 121.675 246.893 136.523C247.16 142.737 246.846 149.512 242.888 154.298C237.895 160.305 228.531 160.973 221.309 158.003" stroke="black" stroke-width="1.2" stroke-linecap="round" stroke-linejoin="round"/>
<path d="M172.95 80.7822C171.047 86.2622 171.868 91.1949 174.385 96.4146" stroke="black" stroke-width="1.2" stroke-linecap="round" stroke-linejoin="round"/>
<path d="M178.957 171.893C178.917 172.133 177.622 168.422 177.622 168.422C171.454 151.341 166.214 134.981 164.506 116.899C164.179 113.422 163.992 109.877 164.813 106.487C165.634 103.096 167.603 99.8119 170.673 98.1833C175.512 95.5868 181.46 97.5158 186.486 99.7518C199.418 105.47 211.585 112.782 222.703 121.518" stroke="black" stroke-width="1.2" stroke-linecap="round" stroke-linejoin="round"/>
<path d="M229.498 127.138L225.166 125.43" stroke="black" stroke-width="1.2" stroke-linecap="round" stroke-linejoin="round"/>
<path d="M207.238 65.1502C207.238 65.1502 216.75 59.0695 236.801 69.8626C241.689 72.4549 246.974 74.2166 252.44 75.0756C252.44 75.0756 248.488 87.8711 252.954 95.6005C253.775 97.0155 230.26 93.7716 227.797 91.5956C224.84 88.9925 207.238 65.1502 207.238 65.1502Z" fill="black" stroke="black" stroke-width="1.2" stroke-linecap="round" stroke-linejoin="round"/>
<path d="M213.665 279.737C224.505 275.225 234.27 271.447 241.913 262.529C249.556 253.612 254.642 239.048 251.258 227.821C248.154 217.528 239.443 209.966 230.506 203.998C206.276 187.799 177.969 179.101 150.929 168.208C131.94 160.552 112.883 151.321 97.2974 138.359C87.9137 130.636 80.987 120.344 77.3666 108.743C76.5656 106.133 75.5177 103.663 74.156 102.128C70.0777 97.5023 54.5789 146.181 61.3805 160.579C68.1821 174.976 110.921 286.892 213.665 279.737Z" fill="#6EDBFF" stroke="black" stroke-width="1.2" stroke-linecap="round" stroke-linejoin="round"/>
<path d="M165.908 175.584C165.951 175.44 166.039 175.314 166.159 175.223C166.279 175.131 166.425 175.081 166.575 175.077C168.925 175.077 172.336 177.293 174.545 178.134C177.495 179.262 180.452 180.357 183.416 181.472C188.549 183.367 193.688 185.229 198.768 187.279C209.771 191.766 220.283 197.373 230.139 204.012C239.077 209.98 247.787 217.542 250.891 227.835C252.079 231.773 252.78 234.963 251.979 239.469C251.178 243.974 248.869 249.801 246.639 245.389C246.639 245.389 246.325 243.32 246.319 243.3C245.738 233.428 245.217 226.68 236.8 217.081C229.845 209.152 220.421 202.998 211.236 198.098C196.512 190.242 181.52 183.754 166.515 176.425C166.201 176.279 165.848 176.058 165.848 175.711C165.862 175.666 165.882 175.624 165.908 175.584Z" fill="white" stroke="white" stroke-width="1.2" stroke-linecap="round" stroke-linejoin="round"/>
<path d="M106.068 233.414L106.736 234.115L106.068 233.414Z" fill="white"/>
<path d="M106.068 233.414L106.736 234.115" stroke="white" stroke-width="1.2" stroke-linecap="round" stroke-linejoin="round"/>
<path d="M202.419 284.783C208.727 282.153 214.667 279.777 220.04 276.493L202.419 284.783Z" fill="#6EDBFF"/>
<path d="M202.419 284.783C208.727 282.153 214.667 279.777 220.04 276.493" stroke="black" stroke-width="1.2" stroke-linecap="round" stroke-linejoin="round"/>
<path d="M240.699 245.509C241.405 241.284 241.178 236.955 240.031 232.827C236.928 222.535 228.217 214.979 219.279 209.005C200.276 196.323 178.764 188.213 157.324 180.057" fill="#6EDBFF"/>
<path d="M240.699 245.509C241.405 241.284 241.178 236.955 240.031 232.827C236.928 222.535 228.217 214.979 219.279 209.005C200.276 196.323 178.764 188.213 157.324 180.057" stroke="black" stroke-width="1.2" stroke-linecap="round" stroke-linejoin="round"/>
<path d="M119.437 162.388C105.901 153.711 92.2911 142.724 81.9586 134.141C72.6139 126.391 69.6703 125.377 66.1193 113.769C65.3184 111.166 64.2638 108.696 62.9088 107.154C58.8305 102.536 43.3316 151.208 50.1266 165.612C56.9215 180.016 99.6734 291.932 202.418 284.784" fill="#6EDBFF"/>
<path d="M119.437 162.388C105.901 153.711 92.2911 142.724 81.9586 134.141C72.6139 126.391 69.6703 125.377 66.1193 113.769C65.3184 111.166 64.2638 108.696 62.9088 107.154C58.8305 102.536 43.3316 151.208 50.1266 165.612C56.9215 180.016 99.6734 291.932 202.418 284.784" stroke="black" stroke-width="1.2" stroke-linecap="round" stroke-linejoin="round"/>
<path d="M182.774 92.0557C183.882 96.1873 186.325 102.028 189.683 104.684" stroke="#6EDBFF" stroke-width="1.2" stroke-linecap="round" stroke-linejoin="round"/>
<path d="M203.947 110.472C211.957 114.597 217.704 117.854 225.527 123.568" stroke="#6EDBFF" stroke-width="1.2" stroke-linecap="round" stroke-linejoin="round"/>
<path d="M195.11 59.1494C195.11 59.1494 199.275 67.1591 205.51 63.8751L205.156 61.8126L195.11 59.1494Z" fill="black" stroke="black" stroke-width="1.2" stroke-linecap="round" stroke-linejoin="round"/>
<path d="M209.16 37.3232C209.16 37.3232 215.574 72.0921 195.276 59.043L209.16 37.3232Z" fill="#6EDBFF"/>
<path d="M136.606 90.2602C131.973 87.3166 128.536 82.7978 130.425 82.5975C132.507 82.3839 137.427 85.7881 137.427 85.7881C139.067 87.2347 140.22 88.2211 142.286 88.9386" fill="#6EDBFF"/>
<path d="M136.606 90.2602C131.973 87.3166 128.536 82.7978 130.425 82.5975C132.507 82.3839 137.427 85.7881 137.427 85.7881C139.067 87.2347 140.22 88.2211 142.286 88.9386" stroke="black" stroke-width="1.2" stroke-linecap="round" stroke-linejoin="round"/>
<path d="M137.94 88.051C136.505 87.3835 133.542 85.8349 132.38 85.301C131.219 84.767 128.262 83.2451 126.613 83.0582C125.278 82.9114 124.884 83.8258 127.067 85.7682C131.486 89.6996 133.942 90.6741 133.942 90.6741C133.942 90.6741 123.89 85.054 122.415 86.0886C120.479 87.4235 125.525 91.4284 129.383 94.0983C131.633 95.6535 133.708 96.9952 134.61 97.7361" fill="#6EDBFF"/>
<path d="M137.94 88.051C136.505 87.3835 133.542 85.8349 132.38 85.301C131.219 84.767 128.262 83.2451 126.613 83.0582C125.278 82.9114 124.884 83.8258 127.067 85.7682C131.486 89.6996 133.942 90.6741 133.942 90.6741C133.942 90.6741 123.89 85.054 122.415 86.0886C120.479 87.4235 125.525 91.4284 129.383 94.0983C131.633 95.6535 133.708 96.9952 134.61 97.7361" stroke="black" stroke-width="1.2" stroke-linecap="round" stroke-linejoin="round"/>
<path d="M134.69 97.6625C134.603 97.6625 118.056 97.5557 124.01 100.893C126.428 101.69 128.894 102.337 131.392 102.829C133.435 103.223 134.79 104.417 142.032 104.11" fill="#6EDBFF"/>
<path d="M134.69 97.6625C134.603 97.6625 118.056 97.5557 124.01 100.893C126.428 101.69 128.894 102.337 131.392 102.829C133.435 103.223 134.79 104.417 142.032 104.11" stroke="black" stroke-width="1.2" stroke-linecap="round" stroke-linejoin="round"/>
<path d="M101.409 131.484C105.174 133.58 109.799 133.56 114.011 132.639C118.223 131.718 124.504 128.768 129.503 126.765C139.055 122.987 141.845 123.301 151.977 124.943C155.428 125.504 160.995 125.497 165.434 126.051" stroke="black" stroke-width="1.2" stroke-linecap="round" stroke-linejoin="round"/>
<path d="M115.667 150.914C142.366 140.729 149.441 151.909 166.395 154.359C168.932 154.732 170.34 155.18 172.896 155.4" stroke="black" stroke-width="1.2" stroke-linecap="round" stroke-linejoin="round"/>
<path d="M101.469 131.523C95.1546 128.3 93.9799 125.736 90.1219 121.905C89.114 120.917 88.0393 119.903 86.6576 119.576C85.276 119.249 83.5673 120.036 83.4004 121.431" stroke="black" stroke-width="1.2" stroke-linecap="round" stroke-linejoin="round"/>
<path d="M115.587 132.532C115.106 135.576 114.619 138.66 114.979 141.723C115.34 144.787 116.668 147.864 119.171 149.66" stroke="black" stroke-width="1.2" stroke-linecap="round" stroke-linejoin="round"/>
<path d="M157.41 125.663C161.522 133.085 163.564 144.786 161.188 152.863" stroke="black" stroke-width="1.2" stroke-linecap="round" stroke-linejoin="round"/>
<path d="M228.057 244.488C228.057 244.488 176.741 255.167 126.053 219.851C68.6498 179.883 57.3027 145.941 57.3027 145.941" stroke="black" stroke-width="1.2" stroke-linecap="round" stroke-linejoin="round"/>
<path d="M199.996 53.8291C199.996 53.8291 202.873 56.2854 205.563 54.8637L199.996 53.8291Z" fill="#6EDBFF"/>
<path d="M199.996 53.8291C199.996 53.8291 202.873 56.2854 205.563 54.8637" stroke="black" stroke-width="1.2" stroke-linecap="round" stroke-linejoin="round"/>
<path d="M203.4 35.5475C203.4 35.5475 211.751 46.8946 205.917 60.8516C205.203 62.5603 208.62 58.0281 208.72 57.8479C210.215 55.1046 212.058 48.9705 208.64 35.2938C205.777 23.9134 203.4 35.5475 203.4 35.5475Z" fill="white"/>
<path d="M184.076 46.908C184.076 46.908 178.283 43.7375 175.86 41.0075C175.626 40.7406 173.564 37.9906 173.924 38.0106C176.944 38.3174 179.993 38.153 182.962 37.5233C182.962 37.5233 175.392 34.1859 174.011 31.4359C173.917 31.249 173.957 31.0488 174.164 31.0688C175.993 31.8698 178.256 33.3377 183.669 31.5421C185.231 31.0215 184.664 32.3037 184.664 32.3037L180.305 28.9663C180.287 28.956 180.274 28.9397 180.267 28.9204C180.26 28.9011 180.26 28.88 180.267 28.8608C180.275 28.8416 180.288 28.8256 180.306 28.8156C180.324 28.8056 180.345 28.8022 180.365 28.8061C184.111 29.3059 187.916 29.1273 191.599 28.2788C200.456 26.4165 209.327 29.1265 209.187 34.473C209.187 35.1404 209.28 37.0628 209.067 36.7424C208.586 36.0282 205.789 34.1192 202.165 35.334C198.327 36.6155 194.823 44.0112 190.451 43.8643C189.219 43.8022 187.991 44.0479 186.878 44.5793C185.765 45.1107 184.802 45.9111 184.076 46.908Z" fill="black" stroke="black" stroke-width="1.2" stroke-linecap="round" stroke-linejoin="round"/>
<path d="M188.772 50.7828C190.336 50.4842 191.268 48.4808 190.853 46.3082C190.438 44.1357 188.834 42.6166 187.27 42.9152C185.706 43.2139 184.774 45.2173 185.189 47.3899C185.603 49.5624 187.208 51.0815 188.772 50.7828Z" fill="#6EDBFF" stroke="#6EDBFF" stroke-width="1.2" stroke-linecap="round" stroke-linejoin="round"/>
<path d="M186.119 41.2207C185.417 42.0774 184.909 43.0767 184.632 44.1491C184.355 45.2215 184.314 46.3414 184.513 47.4311C184.711 48.5209 185.145 49.5543 185.783 50.4597C186.421 51.3652 187.249 52.121 188.208 52.6746" stroke="black" stroke-width="1.2" stroke-linecap="round" stroke-linejoin="round"/>
<path d="M204.888 47.6357C205.669 48.124 206.376 48.7194 206.991 49.4046C207.176 49.5977 207.324 49.8242 207.425 50.072C207.473 50.1945 207.492 50.3268 207.479 50.458C207.467 50.5892 207.423 50.7155 207.351 50.8263C207.084 51.18 206.55 51.1467 206.116 51.0532C205.236 50.8656 204.374 50.5998 203.54 50.2589" stroke="black" stroke-width="1.2" stroke-linecap="round" stroke-linejoin="round"/>
<path d="M97.1774 112.221C97.6991 111.066 98.5108 110.066 99.5336 109.317C100.051 108.953 100.666 108.754 101.299 108.745C101.931 108.737 102.551 108.92 103.078 109.271C103.389 109.531 103.641 109.854 103.819 110.219C103.998 110.583 104.097 110.981 104.113 111.386C104.167 112.359 104.071 113.334 103.825 114.277L102.11 121.766C100.982 126.692 94.7678 116.806 97.1774 112.221Z" fill="white" stroke="white" stroke-width="1.2" stroke-linecap="round" stroke-linejoin="round"/>
<path d="M216.663 195.121C216.176 184.442 202.866 124.836 191.139 113.549" stroke="black" stroke-width="1.2" stroke-linecap="round" stroke-linejoin="round"/>
<path d="M160.381 94.3783C160.381 94.3783 142.312 95.9602 141.271 91.8553C140.23 87.7503 144.749 89.9663 150.656 89.3322C156.563 88.6981 167.343 84.6064 167.343 84.6064C167.343 84.6064 171.147 91.2278 160.381 94.3783Z" fill="white"/>
<path d="M142.205 88.8922C142.205 88.8922 157.764 93.5645 170.606 82.718C172.896 80.7823 174.965 79.1003 176.86 77.6318" fill="#6EDBFF"/>
<path d="M142.205 88.8922C142.205 88.8922 157.764 93.5645 170.606 82.718C172.896 80.7823 174.965 79.1003 176.86 77.6318" stroke="black" stroke-width="1.2" stroke-linecap="round" stroke-linejoin="round"/>
<path d="M160.435 236.898C158.946 235.497 157.411 234.028 156.657 232.126C155.903 230.224 156.156 227.754 157.805 226.532C160.328 224.67 163.986 226.926 165.434 229.71C166.347 231.296 166.669 233.155 166.342 234.956C166.158 235.846 165.712 236.662 165.062 237.297C164.411 237.932 163.586 238.358 162.691 238.52C160.889 238.727 159.354 236.858 159.507 235.049" fill="white"/>
<path d="M160.435 236.898C158.946 235.497 157.411 234.028 156.657 232.126C155.903 230.224 156.156 227.754 157.805 226.532C160.328 224.67 163.986 226.926 165.434 229.71C166.347 231.296 166.669 233.155 166.342 234.956C166.158 235.846 165.712 236.662 165.062 237.297C164.411 237.932 163.586 238.358 162.691 238.52C160.889 238.727 159.354 236.858 159.507 235.049" stroke="white" stroke-width="1.2" stroke-linecap="round" stroke-linejoin="round"/>
<path d="M209.067 89.6194C209.107 90.0065 208.92 90.0866 208.4 90.1333C207.879 90.1801 207.779 90.1 207.685 89.7195C207.609 89.2256 207.356 88.7764 206.973 88.4557C206.589 88.1351 206.102 87.9651 205.603 87.9774C205.242 87.9774 205.142 87.8573 205.102 87.41C205.062 86.9628 205.102 86.796 205.429 86.7426C205.857 86.6896 206.292 86.7222 206.707 86.8385C207.123 86.9549 207.511 87.1526 207.85 87.4203C208.188 87.6879 208.47 88.0202 208.679 88.3977C208.888 88.7752 209.02 89.1905 209.067 89.6194ZM211.91 89.3457C211.623 86.3688 209.314 83.4252 204.662 83.8724L195.417 84.7602C195.379 84.758 195.34 84.7643 195.304 84.7785C195.268 84.7927 195.236 84.8145 195.209 84.8424C195.183 84.8703 195.162 84.9037 195.15 84.9402C195.137 84.9767 195.133 85.0155 195.137 85.0538C195.144 85.0988 195.162 85.1413 195.189 85.1783C195.216 85.2153 195.25 85.2458 195.29 85.2674C195.793 85.5665 196.322 85.8168 196.872 86.015C197.54 86.2753 198.06 86.4355 198.581 86.589C198.801 86.6558 198.888 86.7426 198.901 86.8627C198.915 86.9829 198.815 87.1364 198.581 87.1564L191.239 87.8639C191.198 87.8638 191.158 87.872 191.121 87.888C191.084 87.904 191.051 87.9275 191.024 87.9569C190.996 87.9863 190.975 88.0211 190.961 88.0591C190.948 88.0971 190.942 88.1374 190.945 88.1776C190.952 88.2385 190.972 88.2973 191.003 88.3502C191.034 88.403 191.075 88.4488 191.125 88.4847C192.089 89.26 193.142 89.9166 194.262 90.4404C195.602 91.1005 196.975 91.6931 198.374 92.2159C198.581 92.2893 198.661 92.3961 198.668 92.5096C198.674 92.623 198.581 92.7632 198.347 92.7899L195.01 93.1103C194.823 93.1103 194.723 93.2371 194.736 93.3906C194.767 93.4982 194.832 93.5923 194.923 93.6576C196.094 94.457 197.385 95.0632 198.748 95.4531C201.004 96.2093 203.393 96.4911 205.763 96.2808C210.449 95.8269 212.177 92.1024 211.91 89.3457ZM206.17 94.1582C205.613 94.2233 205.049 94.1766 204.511 94.0208C203.972 93.865 203.47 93.6032 203.034 93.2509C202.598 92.8986 202.237 92.4628 201.971 91.9691C201.706 91.4753 201.542 90.9335 201.489 90.3755C201.435 89.8175 201.494 89.2544 201.661 88.7193C201.828 88.1842 202.1 87.6879 202.462 87.2594C202.823 86.8309 203.267 86.4789 203.766 86.2239C204.265 85.969 204.81 85.8163 205.369 85.7747C205.926 85.7096 206.49 85.7564 207.029 85.9122C207.567 86.068 208.069 86.3297 208.505 86.682C208.941 87.0343 209.302 87.4701 209.568 87.9639C209.833 88.4577 209.997 88.9994 210.051 89.5574C210.104 90.1155 210.045 90.6785 209.878 91.2136C209.711 91.7487 209.439 92.2451 209.078 92.6736C208.716 93.1021 208.273 93.4541 207.774 93.709C207.274 93.964 206.729 94.1167 206.17 94.1582Z" fill="#6EDBFF"/>
<path d="M99.988 64.69C95.7629 62.02 97.8588 55.4988 102.852 55.8792C107.123 56.2063 111.315 57.6748 112.196 62.0067C114.092 71.4248 103.519 82.3781 104.06 74.0814C104.4 68.6948 102.411 66.2051 99.988 64.69Z" fill="white" stroke="white" stroke-width="1.2" stroke-linecap="round" stroke-linejoin="round"/>
<path d="M150.582 222.401C150.4 222.457 150.206 222.47 150.018 222.438C149.83 222.406 149.652 222.33 149.498 222.216C149.345 222.103 149.22 221.954 149.135 221.783C149.049 221.612 149.006 221.424 149.007 221.233C149.053 220.844 149.236 220.484 149.524 220.219C149.811 219.953 150.184 219.799 150.575 219.784C150.965 219.79 151.348 219.885 151.695 220.062C152.042 220.239 152.344 220.494 152.578 220.805C152.847 221.117 153.041 221.486 153.144 221.884C153.247 222.282 153.256 222.699 153.172 223.102C153.078 223.501 152.853 223.858 152.535 224.116C152.216 224.375 151.82 224.52 151.41 224.53C150.982 224.473 150.582 224.288 150.262 223.998C149.943 223.708 149.719 223.328 149.621 222.908C149.444 222.065 149.444 221.195 149.621 220.352" fill="white"/>
<path d="M150.582 222.401C150.4 222.457 150.206 222.47 150.018 222.438C149.83 222.406 149.652 222.33 149.498 222.216C149.345 222.103 149.22 221.954 149.135 221.783C149.049 221.612 149.006 221.424 149.007 221.233C149.053 220.844 149.236 220.484 149.524 220.219C149.811 219.953 150.184 219.799 150.575 219.784C150.965 219.79 151.348 219.885 151.695 220.062C152.042 220.239 152.344 220.494 152.578 220.805C152.847 221.117 153.041 221.486 153.144 221.884C153.247 222.282 153.256 222.699 153.172 223.102C153.078 223.501 152.853 223.858 152.535 224.116C152.216 224.375 151.82 224.52 151.41 224.53C150.982 224.473 150.582 224.288 150.262 223.998C149.943 223.708 149.719 223.328 149.621 222.908C149.444 222.065 149.444 221.195 149.621 220.352" stroke="white" stroke-width="1.2" stroke-linecap="round" stroke-linejoin="round"/>
<path d="M249.449 93.4713C247.22 93.4713 245.578 90.8414 245.578 85.1345C245.578 79.4275 247.387 74.8086 249.616 74.8086" fill="black"/>
<path d="M249.449 93.4713C247.22 93.4713 245.578 90.8414 245.578 85.1345C245.578 79.4275 247.387 74.8086 249.616 74.8086" stroke="black" stroke-width="1.2" stroke-linecap="round" stroke-linejoin="round"/>
<path d="M177.422 32.6504C177.275 32.9842 173.991 30.5078 173.844 30.8416C173.664 33.3513 179.317 39.9593 181.647 40.9071C183.976 41.8549 183.576 38.037 185.191 36.1146C181.667 34.1523 181.24 33.8853 177.422 32.6504Z" fill="black" stroke="black" stroke-width="1.2" stroke-linecap="round" stroke-linejoin="round"/>
<path d="M207.238 65.1502C207.238 65.1502 216.75 59.0695 236.801 69.8626C241.689 72.4549 246.974 74.2166 252.44 75.0756C252.44 75.0756 248.034 88.1514 252.954 95.6005C253.408 96.268 230.26 93.7716 227.797 91.5956C224.84 88.9925 207.238 65.1502 207.238 65.1502Z" fill="black" stroke="black" stroke-width="1.2" stroke-linecap="round" stroke-linejoin="round"/>
<path d="M53.0645 184.021C53.6251 188.293 54.1858 192.432 54.9 196.136C57.0827 207.41 77.4541 239.048 103.272 252.872C117.87 260.681 132.775 272.436 147.993 281.039" stroke="#6EDBFF" stroke-width="1.2" stroke-linecap="round" stroke-linejoin="round"/>
<path d="M208.939 64.8097C212.751 64.0354 218.585 63.4013 224.291 64.9565C233.863 67.5864 246.558 78.1526 263.005 74.2278C281.901 69.7223 285.699 63.6883 292.881 48.5366C293.512 46.943 294.224 45.3834 295.017 43.8642C295.202 43.5768 295.489 43.3709 295.821 43.289C296.152 43.2071 296.503 43.2553 296.8 43.4237C297.834 44.0912 297.814 45.4929 297.901 46.6143C298.108 49.3509 297.233 53.2556 296.185 55.8922C296.185 55.8922 298.415 59.6701 297.3 62.8206" stroke="black" stroke-width="1.2" stroke-linecap="round" stroke-linejoin="round"/>
<path d="M353.429 47.2883L353.716 116.472C353.716 110.171 351.046 104.184 346.3 98.7041C341.555 93.2241 334.599 88.2781 326.029 84.1264C311.818 77.2447 293.082 72.539 272.157 71.1774L271.863 2C292.795 3.33495 311.531 8.0607 325.742 14.9424C334.312 19.0941 341.234 24.0468 346.013 29.5201C350.792 34.9934 353.402 40.9874 353.429 47.2883Z" fill="white"/>
<path d="M353.429 47.2883L353.716 116.472C353.716 110.171 351.046 104.184 346.3 98.7041C341.555 93.2241 334.599 88.2781 326.029 84.1264C311.818 77.2447 293.082 72.539 272.157 71.1774L271.863 2C292.795 3.33495 311.531 8.0607 325.742 14.9424C334.312 19.0941 341.234 24.0468 346.013 29.5201C350.792 34.9934 353.402 40.9874 353.429 47.2883" stroke="black" stroke-width="1.2" stroke-linecap="round" stroke-linejoin="round"/>
<path d="M327.851 25.1282C325.657 23.7196 323.379 22.4468 321.03 21.3168C310.036 15.977 295.546 12.3593 279.353 11.3047L279.579 64.823C295.766 65.871 310.283 69.4954 321.257 74.8352C324.944 76.5857 328.436 78.7201 331.676 81.2029V27.8581C330.488 26.9192 329.213 26.0092 327.851 25.1282Z" fill="white" stroke="black" stroke-width="1.2" stroke-linecap="round" stroke-linejoin="round"/>
<path d="M299.51 75.4627C299.51 75.4627 305.217 70.4633 305.838 64.3626C306.459 58.2618 309.876 49.5646 304.083 49.2509C302.481 49.1641 297.408 50.4991 297.535 49.0106C298.022 43.6708 296.32 40.1532 295.359 43.9177C293.67 50.4991 276.362 69.4554 280.808 74.1077C285.253 78.76 299.51 75.4627 299.51 75.4627Z" fill="#6EDBFF"/>
<path d="M305.23 56.2124C306.26 53.9793 307.677 51.9456 309.415 50.2051C309.962 49.6577 310.75 49.1171 311.417 49.5042C312.085 49.8914 311.938 51.0594 311.618 51.8604C309.722 56.6195 309.989 62.5401 302.613 72.0516" fill="#6EDBFF"/>
<path d="M305.23 56.2124C306.26 53.9793 307.677 51.9456 309.415 50.2051C309.962 49.6577 310.75 49.1171 311.417 49.5042C312.085 49.8914 311.938 51.0594 311.618 51.8604C309.722 56.6195 309.989 62.5401 302.613 72.0516" stroke="black" stroke-width="1.2" stroke-linecap="round" stroke-linejoin="round"/>
<path d="M297.935 49.1637C299.196 46.4307 300.949 43.9531 303.108 41.8549C303.621 41.3676 304.443 40.907 305.057 41.2675C305.218 41.3807 305.349 41.5332 305.435 41.7107C305.521 41.8883 305.561 42.0849 305.551 42.282C305.506 42.8126 305.394 43.3353 305.217 43.8373C304.035 46.9544 303.722 49.4975 301.559 54.8106" fill="#6EDBFF"/>
<path d="M297.935 49.1637C299.196 46.4307 300.949 43.9531 303.108 41.8549C303.621 41.3676 304.443 40.907 305.057 41.2675C305.218 41.3807 305.349 41.5332 305.435 41.7107C305.521 41.8883 305.561 42.0849 305.551 42.282C305.506 42.8126 305.394 43.3353 305.217 43.8373C304.035 46.9544 303.722 49.4975 301.559 54.8106" stroke="black" stroke-width="1.2" stroke-linecap="round" stroke-linejoin="round"/>
<path d="M301.772 54.3435C303.955 47.9224 305.37 45.9667 307.546 43.8908C308.214 43.2234 309.348 42.7094 309.789 43.8908C309.922 44.3235 309.942 44.7829 309.849 45.2258C309.475 47.582 308.367 49.8314 307.506 52.0607C306.645 54.2901 305.757 56.5529 304.903 58.8023" fill="#6EDBFF"/>
<path d="M301.772 54.3435C303.955 47.9224 305.37 45.9667 307.546 43.8908C308.214 43.2234 309.348 42.7094 309.789 43.8908C309.922 44.3235 309.942 44.7829 309.849 45.2258C309.475 47.582 308.367 49.8314 307.506 52.0607C306.645 54.2901 305.757 56.5529 304.903 58.8023" stroke="black" stroke-width="1.2" stroke-linecap="round" stroke-linejoin="round"/>
<path d="M159.26 183.501C171.942 179.729 184.03 182.593 186.199 189.902C186.332 190.356 187.3 192.852 187.354 193.319C188.155 200.341 179.03 206.422 167.116 209.96C155.475 213.424 145.089 213.931 141.611 207.957C141.298 207.41 140.363 204.206 140.176 203.592C138.007 196.236 146.551 187.252 159.26 183.501Z" fill="#6EDBFF" stroke="black" stroke-width="1.2" stroke-linecap="round" stroke-linejoin="round"/>
<path d="M159.26 183.501C171.942 179.729 184.03 182.593 186.199 189.902C186.332 190.356 187.3 192.852 187.354 193.319C188.155 200.341 179.03 206.422 167.116 209.96C155.475 213.424 145.089 213.931 141.611 207.957C141.298 207.41 140.363 204.206 140.176 203.592C138.007 196.236 146.551 187.252 159.26 183.501Z" fill="white"/>
<path d="M168.277 213.522C180.984 209.748 189.527 200.765 187.356 193.457C185.186 186.149 173.125 183.284 160.418 187.057C147.71 190.831 139.168 199.815 141.338 207.123C143.508 214.431 155.569 217.296 168.277 213.522Z" fill="#6EDBFF" stroke="black" stroke-width="1.2" stroke-linecap="round" stroke-linejoin="round"/>
<path d="M144.688 204.94C144.461 199.507 151.443 193.192 161.282 190.256C165.256 189.026 169.427 188.555 173.576 188.867" fill="#6EDBFF"/>
<path d="M144.688 204.94C144.461 199.507 151.443 193.192 161.282 190.256C165.256 189.026 169.427 188.555 173.576 188.867" stroke="black" stroke-width="1.2" stroke-linecap="round" stroke-linejoin="round"/>
<path d="M183.275 193.64C183.488 194.02 183.658 194.423 183.782 194.841C185.478 200.548 178.156 207.763 167.423 210.947C163.638 212.114 159.676 212.602 155.722 212.389" fill="#6EDBFF"/>
<path d="M183.275 193.64C183.488 194.02 183.658 194.423 183.782 194.841C185.478 200.548 178.156 207.763 167.423 210.947C163.638 212.114 159.676 212.602 155.722 212.389" stroke="black" stroke-width="1.2" stroke-linecap="round" stroke-linejoin="round"/>
<path d="M140.911 205.674C140.911 205.601 140.163 203.585 140.15 203.539C140.09 203.338 140.043 203.138 139.996 202.938C138.455 195.742 146.871 187.145 159.233 183.474C169.739 180.357 179.811 181.772 184.203 186.491C185.284 187.784 186.059 189.303 186.473 190.937" stroke="black" stroke-width="1.2" stroke-linecap="round" stroke-linejoin="round"/>
<path d="M353.335 46C353.335 46.3293 353.335 46.6564 353.335 46.9812C353.335 47.1347 353.335 47.2882 353.335 47.4418C353.335 47.662 353.335 47.8823 353.288 48.1092C353.291 48.1291 353.291 48.1494 353.288 48.1693C353.288 48.3161 353.288 48.463 353.248 48.6165C353.248 48.7233 353.248 48.8301 353.208 48.9369C353.168 49.0437 353.208 49.2239 353.155 49.3708C353.101 49.5176 353.121 49.6311 353.101 49.7579L353.001 50.3186C353.001 50.4721 352.948 50.6256 352.914 50.7791V50.8926C352.868 51.1195 352.814 51.3398 352.761 51.5601C352.708 51.7803 352.694 51.8605 352.654 52.014C352.654 52.1341 352.594 52.2476 352.561 52.3611L352.501 52.5613C352.447 52.7549 352.4 52.9418 352.34 53.1287C352.28 53.3155 352.247 53.409 352.207 53.5558C352.167 53.7027 352.147 53.7227 352.12 53.8028C352.093 53.8829 352.02 54.0965 351.973 54.2434C351.92 54.3902 351.866 54.537 351.806 54.6839C351.746 54.8307 351.666 55.0643 351.586 55.2512C351.589 55.2667 351.589 55.2825 351.586 55.298C351.499 55.5182 351.406 55.7385 351.312 55.9654C351.312 55.9654 351.312 55.9988 351.312 56.0188C351.246 56.1857 351.172 56.3459 351.099 56.5128L350.785 57.1802L350.525 57.7076L350.178 58.375L349.884 58.9023C349.764 59.1159 349.63 59.3362 349.504 59.5698L349.363 59.8034C349.303 59.8969 349.25 59.9903 349.197 60.0838C349.056 60.304 348.91 60.5243 348.763 60.7513L348.723 60.8113L348.442 61.2385C348.289 61.4654 348.122 61.6857 347.962 61.906L347.802 62.1196L347.635 62.3599L347.061 63.1074L346.9 63.3144L346.78 63.4746C346.48 63.8483 346.173 64.2155 345.859 64.5826C345.546 64.9497 345.145 65.3902 344.771 65.7907L344.718 65.8508L344.417 66.1712C344.15 66.4448 343.883 66.7252 343.61 66.9988L343.189 67.4127C342.909 67.6863 342.615 67.9667 342.328 68.2337L341.988 68.5541C341.554 68.9546 341.107 69.3484 340.653 69.7422C340.186 70.1427 339.698 70.5365 339.211 70.9303L338.957 71.1239L338.771 71.2707C338.383 71.5777 337.983 71.8848 337.576 72.1851L337.175 72.4855C336.648 72.8726 336.114 73.2531 335.567 73.6336L335.473 73.6936L335.246 73.8472C334.786 74.1542 334.325 74.4679 333.851 74.7683L333.644 74.9018L333.337 75.102C332.857 75.4091 332.369 75.7094 331.869 76.0098L331.682 76.1299L331.548 76.2034C330.948 76.5571 330.34 76.9109 329.72 77.258L329.239 77.525C328.752 77.7986 328.264 78.0656 327.764 78.3259L327.21 78.6196C326.542 78.9534 325.875 79.2871 325.207 79.6208L324.053 80.1749L323.632 80.3818C322.965 80.6955 322.297 81.0092 321.576 81.3162L321.009 81.5632L319.4 82.2307L318.853 82.4576L318.773 82.491C318.105 82.778 317.371 83.0583 316.664 83.3387H316.59L314.361 84.173L314.094 84.2665L313.747 84.3933H313.7C313.133 84.6002 312.552 84.8005 311.971 85.0007L311.638 85.1142L311.344 85.2143C310.576 85.4746 309.795 85.7349 309.008 85.9819L308.894 86.0153L308.741 86.062L306.598 86.7295L306.044 86.8897L305.877 86.9364L304.002 87.4704L303.374 87.6439C302.5 87.8775 301.612 88.1112 300.704 88.3114L300.484 88.3648L300.11 88.4582L297.821 89.0056L297.187 89.1457C296.272 89.3593 295.344 89.5596 294.41 89.7531L294.09 89.8199L293.856 89.8666L291.446 90.3405L290.779 90.4673C289.824 90.6409 288.87 90.8144 287.902 90.9746L287.682 91.008L287.388 91.0547C286.556 91.1971 285.715 91.3306 284.865 91.4552L284.131 91.562L283.804 91.6087L283.443 91.6621V160.88L284.425 160.746L285.159 160.633C286.006 160.512 286.841 160.379 287.682 160.239L288.189 160.159C289.157 159.998 290.111 159.825 291.066 159.651L291.733 159.518C292.534 159.371 293.335 159.211 294.13 159.051L294.69 158.937C295.625 158.744 296.546 158.543 297.467 158.33L298.094 158.183C298.869 158.009 299.63 157.829 300.391 157.636L300.985 157.495C301.875 157.268 302.765 157.046 303.655 156.828L303.835 156.781L304.275 156.661L306.151 156.127L306.879 155.92L309.021 155.253L309.281 155.173L311.624 154.405L312.292 154.185L314.027 153.577L314.695 153.344C315.449 153.07 316.196 152.79 316.931 152.509H316.991C317.705 152.229 318.413 151.949 319.113 151.662L319.734 151.401C320.275 151.174 320.815 150.947 321.343 150.734L321.917 150.487C322.584 150.18 323.292 149.866 323.966 149.552H324.019L325.548 148.818C326.215 148.491 326.883 148.151 327.55 147.817L328.111 147.517C328.605 147.256 329.099 146.989 329.586 146.716C329.746 146.629 329.906 146.542 330.06 146.449C330.681 146.102 331.295 145.781 331.896 145.387L332.216 145.194C332.71 144.893 333.204 144.586 333.684 144.279L334.192 143.952C334.666 143.645 335.133 143.338 335.593 143.024L335.907 142.818C336.454 142.437 336.995 142.057 337.522 141.67L337.916 141.369C338.323 141.069 338.724 140.762 339.118 140.455L339.552 140.114C340.045 139.72 340.526 139.327 340.993 138.926C341.434 138.546 341.861 138.159 342.288 137.778L342.669 137.418L343.536 136.597L343.95 136.183C344.224 135.909 344.498 135.629 344.765 135.349L345.118 134.975C345.485 134.574 345.853 134.174 346.2 133.767C346.547 133.359 346.827 133.032 347.121 132.659C347.221 132.538 347.308 132.418 347.408 132.291L347.982 131.544L348.309 131.09L348.796 130.423L349.117 129.935L349.544 129.268L349.851 128.754C349.984 128.54 350.111 128.32 350.238 128.086C350.365 127.853 350.431 127.739 350.525 127.566C350.618 127.392 350.759 127.132 350.872 126.898C350.985 126.665 351.052 126.538 351.139 126.358C351.226 126.177 351.346 125.924 351.446 125.69C351.546 125.457 351.606 125.323 351.686 125.143C351.766 124.963 351.873 124.709 351.96 124.475C352 124.382 352.04 124.295 352.073 124.202C352.107 124.108 352.16 123.975 352.2 123.861L352.36 123.421C352.441 123.194 352.521 122.96 352.594 122.753C352.667 122.546 352.687 122.473 352.728 122.333C352.808 122.072 352.881 121.812 352.948 121.558L353.048 121.211C353.141 120.838 353.228 120.464 353.308 120.083V119.977C353.375 119.636 353.435 119.309 353.488 118.949C353.488 118.822 353.529 118.695 353.542 118.561C353.582 118.308 353.615 118.061 353.642 117.801L353.682 117.36C353.682 117.12 353.722 116.886 353.735 116.646V116.179V115.852C353.735 115.638 353.735 115.418 353.735 115.184L353.335 46Z" fill="#6EDBFF" stroke="black" stroke-width="1.2" stroke-linecap="round" stroke-linejoin="round"/>
<path d="M288.537 146.208L289.385 146.095L290.052 145.995C290.78 145.888 291.501 145.774 292.222 145.654L292.662 145.587C293.499 145.445 294.326 145.298 295.145 145.147L295.739 145.033C296.407 144.907 297.121 144.766 297.808 144.626L298.289 144.533C299.097 144.366 299.891 144.192 300.685 144.012L301.232 143.885L303.235 143.411L303.742 143.285L306.045 142.691L306.199 142.644L306.579 142.537L308.201 142.083L308.822 141.896C309.443 141.716 310.057 141.529 310.671 141.336L310.898 141.269C311.565 141.055 312.233 140.835 312.9 140.601L313.454 140.414L314.956 139.887L315.516 139.687L317.446 138.966H317.499C318.113 138.732 318.72 138.485 319.321 138.238L319.862 138.011L321.25 137.424L321.744 137.204C322.338 136.944 322.932 136.67 323.513 136.396H323.56L324.895 135.769C325.469 135.482 326.036 135.195 326.597 134.901L327.077 134.647C327.504 134.42 327.925 134.187 328.345 133.98L328.759 133.753C329.293 133.453 329.821 133.146 330.341 132.839L330.615 132.665L331.883 131.884L332.324 131.597C332.731 131.337 333.131 131.07 333.532 130.796L333.645 130.723" fill="#6EDBFF"/>
<path d="M288.537 146.208L289.385 146.095L290.052 145.995C290.78 145.888 291.501 145.774 292.222 145.654L292.662 145.587C293.499 145.445 294.326 145.298 295.145 145.147L295.739 145.033C296.407 144.907 297.121 144.766 297.808 144.626L298.289 144.533C299.097 144.366 299.891 144.192 300.685 144.012L301.232 143.885L303.235 143.411L303.742 143.285L306.045 142.691L306.199 142.644L306.579 142.537L308.201 142.083L308.822 141.896C309.443 141.716 310.057 141.529 310.671 141.336L310.898 141.269C311.565 141.055 312.233 140.835 312.9 140.601L313.454 140.414L314.956 139.887L315.516 139.687L317.446 138.966H317.499C318.113 138.732 318.72 138.485 319.321 138.238L319.862 138.011L321.25 137.424L321.744 137.204C322.338 136.944 322.932 136.67 323.513 136.396H323.56L324.895 135.769C325.469 135.482 326.036 135.195 326.597 134.901L327.077 134.647C327.504 134.42 327.925 134.187 328.345 133.98L328.759 133.753C329.293 133.453 329.821 133.146 330.341 132.839L330.615 132.665L331.883 131.884L332.324 131.597C332.731 131.337 333.131 131.07 333.532 130.796L333.645 130.723" stroke="black" stroke-width="1.2" stroke-linecap="round" stroke-linejoin="round"/>
<path d="M339.372 126.097L339.599 125.883L340.347 125.176L340.707 124.822L341.408 124.101L341.708 123.781C342.029 123.434 342.376 123.113 342.649 122.733C342.923 122.352 343.183 122.065 343.437 121.778C343.524 121.678 343.604 121.572 343.684 121.465L344.185 120.797L344.465 120.41C344.605 120.21 344.745 120.016 344.879 119.816C345.012 119.616 345.066 119.536 345.159 119.396C345.253 119.255 345.406 119.015 345.526 118.828C345.646 118.641 345.706 118.535 345.793 118.388C345.88 118.241 346.02 118.014 346.127 117.827L346.374 117.373C346.474 117.186 346.581 116.999 346.674 116.812C346.768 116.626 346.828 116.505 346.901 116.352C346.975 116.198 347.081 115.978 347.168 115.784C347.255 115.591 347.308 115.477 347.375 115.317C347.442 115.157 347.535 114.943 347.615 114.757C347.615 114.676 347.682 114.596 347.709 114.516C347.736 114.436 347.782 114.323 347.822 114.223C347.862 114.122 347.916 113.969 347.956 113.842C347.996 113.715 348.096 113.448 348.163 113.248L348.223 113.048" fill="#6EDBFF"/>
<path d="M339.372 126.097L339.599 125.883L340.347 125.176L340.707 124.822L341.408 124.101L341.708 123.781C342.029 123.434 342.376 123.113 342.649 122.733C342.923 122.352 343.183 122.065 343.437 121.778C343.524 121.678 343.604 121.572 343.684 121.465L344.185 120.797L344.465 120.41C344.605 120.21 344.745 120.016 344.879 119.816C345.012 119.616 345.066 119.536 345.159 119.396C345.253 119.255 345.406 119.015 345.526 118.828C345.646 118.641 345.706 118.535 345.793 118.388C345.88 118.241 346.02 118.014 346.127 117.827L346.374 117.373C346.474 117.186 346.581 116.999 346.674 116.812C346.768 116.626 346.828 116.505 346.901 116.352C346.975 116.198 347.081 115.978 347.168 115.784C347.255 115.591 347.308 115.477 347.375 115.317C347.442 115.157 347.535 114.943 347.615 114.757C347.615 114.676 347.682 114.596 347.709 114.516C347.736 114.436 347.782 114.323 347.822 114.223C347.862 114.122 347.916 113.969 347.956 113.842C347.996 113.715 348.096 113.448 348.163 113.248L348.223 113.048" stroke="black" stroke-width="1.2" stroke-linecap="round" stroke-linejoin="round"/>
<path d="M326.356 96.4142C323.344 97.6564 320.811 99.8353 319.134 102.628C317.679 101.013 314.461 100.312 311.571 101.4C306.899 103.149 304.496 106.947 304.015 111.773C303.007 121.785 317.111 130.689 318.893 131.323C318.969 131.337 319.047 131.33 319.118 131.303C319.19 131.276 319.253 131.23 319.301 131.17C321.223 129.167 335.14 114.483 335.38 102.922C335.48 97.9828 331.142 94.632 326.356 96.4142Z" fill="black" stroke="black" stroke-width="1.2" stroke-linecap="round" stroke-linejoin="round"/>
<path d="M288.95 152.796L289.798 152.676L290.465 152.583C291.193 152.476 291.914 152.362 292.635 152.242L293.075 152.169C293.91 152.035 294.737 151.888 295.558 151.735L296.152 151.621L298.221 151.214L298.709 151.114L301.098 150.6L301.646 150.473L303.648 149.999L304.155 149.873C304.93 149.681 305.697 149.481 306.458 149.272L306.618 149.232L306.992 149.125L308.614 148.671L309.235 148.484C309.856 148.304 310.476 148.117 311.084 147.924L311.311 147.85C311.978 147.637 312.646 147.416 313.313 147.183L313.867 146.989C314.374 146.822 314.875 146.642 315.369 146.468L315.93 146.268C316.597 146.028 317.224 145.788 317.859 145.541H317.912L319.741 144.813L320.282 144.586L321.663 143.992L322.157 143.778C322.758 143.511 323.345 143.245 323.926 142.971H323.973L325.308 142.303C325.888 142.023 326.449 141.729 327.01 141.436L327.49 141.182C327.918 140.955 328.345 140.728 328.759 140.514L329.172 140.281C329.706 139.981 330.234 139.68 330.754 139.366L331.028 139.2C331.462 138.939 331.882 138.679 332.296 138.412L332.737 138.132L333.945 137.331L334.212 137.15C334.686 136.823 335.153 136.483 335.607 136.156L335.947 135.902C336.301 135.642 336.615 135.382 336.982 135.115L337.356 134.821C337.783 134.481 338.197 134.153 338.604 133.793C338.964 133.486 339.318 133.172 339.658 132.865" stroke="black" stroke-width="1.2" stroke-linecap="round" stroke-linejoin="round"/>
<path d="M279.873 37.0024L297.668 22.0977L311.285 39.5388L316.457 47.048" stroke="black" stroke-width="1.2" stroke-linecap="round" stroke-linejoin="round"/>
<path d="M331.522 47.6016L320.842 33.8916L311.284 39.5385" fill="white"/>
<path d="M331.522 47.6016L320.842 33.8916L311.284 39.5385" stroke="black" stroke-width="1.2" stroke-linecap="round" stroke-linejoin="round"/>
<path d="M315.389 30.6349C316.628 30.6349 317.632 29.6308 317.632 28.3921C317.632 27.1535 316.628 26.1494 315.389 26.1494C314.151 26.1494 313.146 27.1535 313.146 28.3921C313.146 29.6308 314.151 30.6349 315.389 30.6349Z" fill="black" stroke="black" stroke-width="1.2" stroke-linecap="round" stroke-linejoin="round"/>
<path d="M256.925 75.5625C256.925 75.5625 264.881 78.7731 275.474 74.5012C285.212 70.5698 294.744 60.8246 295.498 46.861C296.253 32.8974 289.665 63.8082 274.206 70.6432C259.054 77.3714 256.925 75.5625 256.925 75.5625Z" fill="white" stroke="white" stroke-width="1.2" stroke-linecap="round" stroke-linejoin="round"/>
<path d="M303.108 71.4912C295.499 80.8759 284.973 88.0847 273.332 92.3165C263.5 95.8875 251.445 96.4682 240.445 94.8863" fill="#6EDBFF"/>
<path d="M303.108 71.4912C295.499 80.8759 284.973 88.0847 273.332 92.3165C263.5 95.8875 251.445 96.4682 240.445 94.8863" stroke="black" stroke-width="1.2" stroke-linecap="round" stroke-linejoin="round"/>
<path d="M252.56 74.9548C274.747 76.4099 285.68 63.0203 292.862 47.8686C293.492 46.275 294.205 44.7154 294.998 43.1963C295.182 42.9088 295.47 42.703 295.801 42.621C296.133 42.5391 296.483 42.5873 296.78 42.7557C297.815 43.4232 297.795 44.8249 297.881 45.9463C298.088 48.6829 297.214 52.5877 296.166 55.2242C296.166 55.2242 298.395 59.0021 297.281 62.1526" stroke="black" stroke-width="1.2" stroke-linecap="round" stroke-linejoin="round"/>
<path d="M207.238 65.1502C207.238 65.1502 216.75 59.0695 236.801 69.8626C241.689 72.4549 246.974 74.2166 252.44 75.0756C252.44 75.0756 249.53 88.0447 253.288 95.4403C253.588 96.0344 230.24 93.7716 227.797 91.609C224.84 88.9925 207.238 65.1502 207.238 65.1502Z" fill="black" stroke="black" stroke-width="1.2" stroke-linecap="round" stroke-linejoin="round"/>
<path d="M238.496 95.0803C234.44 94.6496 230.456 93.7007 226.642 92.2568" stroke="#6EDBFF" stroke-width="1.2" stroke-linecap="round" stroke-linejoin="round"/>
<path d="M243.195 260.927C250.11 251.943 254.449 238.387 251.252 227.78C248.148 217.488 239.437 209.925 230.5 203.958C208.727 189.427 183.663 180.93 159.187 171.485" stroke="black" stroke-width="1.2" stroke-linecap="round" stroke-linejoin="round"/>
<path d="M160.1 199.52C158.458 200.375 157.517 201.609 157.664 202.944L164.138 200.408C164.138 197.978 164.659 196.036 168.03 194.714C171.06 193.533 173.556 194.14 174.705 196.27L176.941 195.395L177.388 196.543L175.132 197.431C175.712 199.867 173.957 202.103 171.28 203.298L170.279 202.27C172.335 201.322 173.55 199.894 173.256 198.192L166.188 200.962C166.188 203.118 165.727 205.047 162.503 206.302C159.546 207.456 157.257 206.716 156.242 204.853L154.18 205.661L153.732 204.506L155.815 203.692C155.421 201.743 156.616 199.827 159.152 198.546L160.1 199.52ZM164.105 201.743L158.051 204.112C158.812 205.394 160.167 205.708 161.802 205.067C163.438 204.426 164.012 203.318 164.118 201.756L164.105 201.743ZM166.107 199.62L172.782 197.01C172.041 195.676 170.559 195.215 168.597 195.983C166.635 196.75 166.228 197.871 166.147 199.634L166.107 199.62Z" fill="black"/>
<path d="M43.7995 160.059C43.5659 154.94 43.339 150.714 43.132 147.11C40.3086 141.89 37.2783 137.145 35.6229 134.642C35.2115 145.479 35.995 156.329 37.9591 166.994C39.6867 164.507 41.642 162.185 43.7995 160.059Z" fill="#6EDBFF"/>
<path d="M215.401 274.371C205.329 278.209 190.965 268.317 186.546 263.752C180.312 257.297 175.48 246.184 166.709 244.301C158.459 242.539 156.196 252.031 148.02 254.107C140.143 256.109 132.24 249.434 129.57 241.778C126.901 234.122 127.962 225.719 128.409 217.602C128.856 209.486 128.456 200.715 123.536 194.241C116.995 185.657 103.285 186.645 98.8064 176.826C95.6759 169.958 98.5261 158.417 99.4739 150.928C100.422 143.439 99.3004 132.666 92.412 129.569C89.2281 128.14 85.0697 129.569 81.9125 128.014C75.2845 124.763 74.8306 115.752 77.1735 108.743C79.5163 101.735 87.3592 91.4691 92.9793 86.3162C101.93 78.1129 97.1044 71.8987 89.989 69.8629C83.3743 67.9673 77.7742 67.6869 72.6346 68.5279C62.816 70.0965 55.1801 74.9224 46.5029 85.2683C30.1497 118.308 36.2304 122.08 37.1582 141.336C37.1582 141.336 34.8087 133.473 35.583 134.668C37.2383 137.171 40.2553 141.917 43.0921 147.137C42.4246 136.778 41.6704 130.997 40.5156 121.412C39.5011 113.015 41.4901 105.973 44.9009 100.72C48.5787 95.0535 53.9185 91.4958 58.9647 90.6081C60.8885 90.2344 62.8733 90.319 64.7584 90.8551C71.62 92.9309 71.6534 102.302 66.941 110.252C63.063 116.8 62.4489 120.531 60.1528 127.713C57.8567 134.895 59.4786 150.127 65.9331 153.464C68.9635 155.033 72.6079 154.799 75.6783 156.254C82.3531 159.425 83.688 168.863 82.7135 176.526C81.739 184.188 81.432 192.051 84.4623 199.086C88.7942 209.139 102.578 211.008 108.905 219.778C113.664 226.4 113.504 240.604 115.814 246.057C136.546 294.976 147.452 252.605 195.731 279.291C202.759 283.175 210.896 284.584 218.926 284.517L223.711 284.477C228.892 282.317 233.946 279.866 238.85 277.135C231.788 273.937 222.243 271.768 215.401 274.371Z" fill="white" stroke="white" stroke-width="1.2" stroke-linecap="round" stroke-linejoin="round"/>
<path d="M218.925 284.53C210.915 284.597 202.759 283.195 195.73 279.304C147.452 252.605 136.545 294.99 115.813 246.07C113.504 240.617 113.664 226.413 108.905 219.792C102.577 210.994 88.7937 209.112 84.4618 199.1C81.4315 192.065 81.7919 184.208 82.713 176.539C83.6342 168.87 82.3393 159.438 75.6778 156.268C72.6008 154.806 68.963 155.046 65.9326 153.478C59.5048 150.14 57.8695 134.895 60.1657 127.72C62.4618 120.544 63.0759 116.807 66.9539 110.259C71.6663 102.309 71.6262 92.9042 64.7712 90.8617C62.8862 90.3257 60.9014 90.2411 58.9775 90.6147C53.9314 91.5025 48.5916 95.0601 44.9138 100.727C41.503 105.973 39.5139 113.015 40.5285 121.419C41.6832 131.004 42.4308 136.771 43.1049 147.143C43.3385 150.781 43.5655 154.973 43.7724 160.092C41.6056 162.217 39.6414 164.539 37.9053 167.028C42.4743 191.932 53.3544 215.247 69.5057 234.747C85.6569 254.246 106.539 269.277 130.157 278.403L126.927 286.733C126.756 287.17 126.679 287.637 126.701 288.106C126.722 288.574 126.843 289.033 127.054 289.452C127.265 289.87 127.562 290.24 127.925 290.536C128.288 290.833 128.71 291.049 129.163 291.172C154.085 297.715 180.289 297.605 205.155 290.851C211.473 289.14 217.672 287.015 223.711 284.49L218.925 284.53Z" fill="#6EDBFF"/>
<path d="M242.368 267.195C246.146 276.673 244.884 286.405 239.544 288.928C239.21 289.088 237.402 290.123 237.054 290.223C231.828 291.651 226.575 285.23 223.037 276.346C219.573 267.669 218.425 259.606 222.684 256.228C223.071 255.921 225.414 254.827 225.861 254.613C231.201 252.083 238.59 257.717 242.368 267.195Z" fill="#6EDBFF" stroke="black" stroke-width="1.2" stroke-linecap="round" stroke-linejoin="round"/>
<path d="M243.268 266.808C247.033 276.286 245.558 286.112 239.977 288.748C239.624 288.908 237.728 289.983 237.368 290.083C231.921 291.605 226.574 285.231 223.044 276.34C219.586 267.663 218.525 259.553 223.003 256.082C223.417 255.768 225.867 254.62 226.341 254.4C231.921 251.77 239.497 257.323 243.268 266.808Z" fill="white"/>
<path d="M35.7979 150C39.4924 205.688 74.6736 256.914 130.158 278.402L126.927 286.732C126.756 287.169 126.679 287.637 126.701 288.105C126.723 288.574 126.843 289.032 127.054 289.451C127.265 289.87 127.562 290.239 127.925 290.536C128.289 290.832 128.71 291.049 129.163 291.171C164.165 300.354 200.174 296.123 231.086 281.174" stroke="white" stroke-width="2" stroke-linejoin="round"/>
<path d="M235.065 275.499C228.63 273.243 221.088 271.894 215.414 274.05C205.342 277.888 190.998 268.223 186.579 263.658C180.345 257.203 175.512 246.09 166.742 244.207C158.492 242.445 156.229 251.937 148.052 254.013C140.176 256.015 132.353 249.113 129.683 241.457C127.013 233.801 127.995 225.625 128.442 217.508C128.889 209.392 128.489 200.621 123.569 194.146C117.028 185.563 103.318 186.551 98.8393 176.732C95.7088 169.864 98.5589 158.323 99.5067 150.834C100.455 143.345 99.3332 132.572 92.4449 129.475C89.261 128.046 85.1026 129.475 81.9454 127.919C75.324 124.649 74.8702 115.638 77.213 108.629C79.5559 101.621 87.6056 91.7555 93.2258 86.6025C102.177 78.3992 99.2931 71.8847 92.2112 69.7487C72.9345 63.9283 56.2075 69.3883 44.9338 87.5704C41.543 93.037 36.6905 103.089 35.2354 117.607" stroke="#6EDBFF" stroke-width="1.2" stroke-linecap="round" stroke-linejoin="round"/>
<path d="M53.0503 135.549C61.9611 152.97 62.6753 170.431 54.6589 174.55C54.1583 174.81 51.495 176.552 50.9477 176.672C42.7911 178.828 32.3652 166.813 24.015 150.467C15.8518 134.501 11.66 119.85 17.6673 114.116C18.2146 113.589 21.7389 111.807 22.4064 111.446C30.4295 107.341 44.1261 118.121 53.0503 135.549Z" fill="#6EDBFF" stroke="black" stroke-width="1.2" stroke-linecap="round" stroke-linejoin="round"/>
<path d="M54.5055 134.775C63.4097 152.196 63.8035 169.83 55.3866 174.156C54.8593 174.423 52.0493 176.218 51.4819 176.372C42.9716 178.708 32.3653 166.773 24.0152 150.44C15.8586 134.474 11.787 119.736 18.1548 113.836C18.7355 113.295 22.4333 111.419 23.1341 111.059C31.5577 106.74 45.6014 117.38 54.5055 134.775Z" fill="white"/>
<path d="M50.7554 176.745C58.7866 172.646 58.086 155.194 49.1905 137.766C40.2949 120.338 26.5731 109.532 18.5419 113.631C10.5106 117.731 11.2112 135.182 20.1068 152.611C29.0023 170.039 42.7242 180.844 50.7554 176.745Z" fill="#6EDBFF" stroke="black" stroke-width="1.2" stroke-linecap="round" stroke-linejoin="round"/>
<path d="M22.2861 118.035C28.7206 116.94 38.6994 125.891 45.5944 139.394C48.427 144.787 50.419 150.58 51.5016 156.575" fill="#6EDBFF"/>
<path d="M22.2861 118.035C28.7206 116.94 38.6994 125.891 45.5944 139.394C48.427 144.787 50.419 150.58 51.5016 156.575" stroke="black" stroke-width="1.2" stroke-linecap="round" stroke-linejoin="round"/>
<path d="M49.133 170.959C48.7527 171.313 48.326 171.614 47.8647 171.853C41.5971 175.071 30.4236 165.759 22.9011 151.048C20.2155 145.905 18.2781 140.405 17.1475 134.715" fill="#6EDBFF"/>
<path d="M49.133 170.959C48.7527 171.313 48.326 171.614 47.8647 171.853C41.5971 175.071 30.4236 165.759 22.9011 151.048C20.2155 145.905 18.2781 140.405 17.1475 134.715" stroke="black" stroke-width="1.2" stroke-linecap="round" stroke-linejoin="round"/>
<path d="M20.0977 112.835L22.574 111.366C22.8076 111.246 23.0479 111.139 23.2949 111.039C31.9721 107.528 45.6353 117.954 54.2992 134.902C61.6414 149.312 63.0966 163.917 58.4976 171.039C57.2248 172.788 55.524 174.181 53.5583 175.084" stroke="black" stroke-width="1.2" stroke-linecap="round" stroke-linejoin="round"/>
<path d="M33.5934 137.845C32.1317 135.842 30.3629 134.781 28.7409 135.175L33.48 143.271C36.5036 142.884 39.0401 143.271 41.4897 147.49C43.7057 151.281 43.5522 154.658 41.1893 156.494L42.8247 159.291L41.4897 160.058L39.841 157.235C36.9509 158.383 33.747 156.421 31.5977 153.103L32.6389 151.575C34.321 154.131 36.3968 155.5 38.4393 154.845L33.2664 146.001C30.5965 146.322 28.0801 146.001 25.7172 141.996C23.5613 138.299 23.9217 135.175 25.9909 133.546L24.4824 130.97L25.8173 130.202L27.3392 132.805C29.6687 131.991 32.3453 133.259 34.548 136.343L33.5934 137.845ZM31.8113 143.452L27.3859 135.876C25.9842 137.07 25.9241 138.899 27.1189 140.949C28.3137 142.998 29.8489 143.578 31.8113 143.452ZM34.9484 145.781L39.8277 154.131C41.2628 152.956 41.5231 150.934 40.088 148.484C38.6529 146.035 37.1578 145.634 34.9484 145.801V145.781Z" fill="black"/>
<path d="M80.5443 145.675C80.662 144.967 80.8736 144.228 80.8313 143.512C80.7312 141.903 80.9381 138.94 83.7081 137.899C88.8076 135.983 91.838 139.941 91.2239 144.006C90.6365 147.877 95.1019 152.95 90.1359 154.332C86.7985 155.253 85.6838 152.089 83.7949 150.207C82.0795 148.525 80.1104 148.144 80.5443 145.675Z" fill="#6EDBFF"/>
<path d="M121.167 208.864C119.445 209.578 117.609 207.983 116.795 206.308C116.448 205.6 116.174 204.839 115.867 204.112C115.512 203.095 114.917 202.179 114.132 201.442C112.062 199.706 108.612 199.72 107.363 197.437C104.22 191.65 113.304 192.144 116.174 193.539C121.501 196.102 126.894 206.468 121.167 208.864Z" fill="#6EDBFF"/>
<path d="M236.763 290.299C242.476 288.223 244.282 278.761 240.797 269.163C237.311 259.565 229.853 253.466 224.139 255.542C218.426 257.617 216.62 267.079 220.105 276.677C223.591 286.275 231.049 292.374 236.763 290.299Z" fill="#6EDBFF" stroke="black" stroke-width="1.2" stroke-linecap="round" stroke-linejoin="round"/>
<path d="M226.113 258.258C230.178 257.464 235.458 262.183 238.375 269.525C239.616 272.516 240.291 275.712 240.364 278.95" fill="#6EDBFF"/>
<path d="M226.113 258.258C230.178 257.464 235.458 262.183 238.375 269.525C239.616 272.516 240.291 275.712 240.364 278.95" stroke="black" stroke-width="1.2" stroke-linecap="round" stroke-linejoin="round"/>
<path d="M236.5 286.413C236.232 286.624 235.941 286.803 235.632 286.946C231.801 288.762 226.454 284.791 223.137 277.936" fill="#6EDBFF"/>
<path d="M236.5 286.413C236.232 286.624 235.941 286.803 235.632 286.946C231.801 288.762 226.454 284.791 223.137 277.936" stroke="black" stroke-width="1.2" stroke-linecap="round" stroke-linejoin="round"/>
<path d="M224.345 255.435C224.405 255.435 226.033 254.541 226.074 254.527C226.234 254.447 226.401 254.381 226.567 254.314C232.435 252.038 239.964 257.431 243.608 266.662C246.705 274.505 246.031 282.682 242.347 286.84C241.331 287.886 240.117 288.719 238.776 289.29" stroke="black" stroke-width="1.2" stroke-linecap="round" stroke-linejoin="round"/>
<path d="M231.067 268.618C230.459 267.49 229.525 266.869 228.477 267.022L230.232 271.501C232.135 271.408 233.63 271.715 234.544 274.051C235.365 276.14 234.798 277.929 233.096 278.817L233.703 280.359L232.789 280.719L232.175 279.157C230.252 279.651 228.57 278.49 227.723 276.641L228.577 275.873C229.244 277.295 230.319 278.103 231.661 277.836L229.745 272.943C228.056 273.01 226.568 272.756 225.693 270.527C224.893 268.484 225.553 266.836 227.028 266.055L226.474 264.633L227.389 264.272L227.95 265.714C229.485 265.367 230.94 266.148 231.854 267.87L231.067 268.618ZM229.191 271.535L227.549 267.343C227.082 267.584 226.729 267.999 226.565 268.499C226.401 268.998 226.441 269.542 226.675 270.013C227.142 271.208 227.976 271.515 229.191 271.535ZM230.78 272.87L232.588 277.489C232.848 277.357 233.079 277.174 233.268 276.952C233.457 276.73 233.599 276.473 233.687 276.195C233.776 275.918 233.808 275.625 233.782 275.335C233.756 275.045 233.672 274.763 233.536 274.505C233.022 273.203 232.148 272.89 230.78 272.89V272.87Z" fill="black"/>
<path d="M209.034 36.876C209.034 36.876 215.482 72.1321 195.184 59.0829" stroke="black" stroke-width="1.2" stroke-linecap="round" stroke-linejoin="round"/>
</svg>
